<svg display="none" xmlns="http://www.w3.org/2000/svg">
    <symbol id="logo" viewBox="0 0 182 30">
        <g>
            <path d="M14.26 15.21C12.69 13.96 10.87 13.3 8.99 13.3C4.75 13.3 1.17 16.73 0.07 21.83C-0.12 22.74 0.05 23.68 0.54 24.42C1.02 25.14 1.74 25.55 2.51 25.55L32.37 25.55C26.73 25.55 23.89 23.52 19.62 19.83L14.26 15.21ZM27.09 14.22L25.61 5.66C25.45 4.72 24.91 3.88 24.13 3.35C23.34 2.82 22.36 2.62 21.43 2.82L10.98 5.04C9.49 5.36 8.39 6.59 8.23 8.09L7.85 11.66C8.22 11.61 8.59 11.55 8.98 11.55C11.27 11.55 13.47 12.34 15.4 13.89L20.76 18.51C24.65 21.86 27.06 23.8 32.37 23.8C33.82 23.8 34.99 22.62 34.99 21.17C35 19.79 33.38 14.64 27.09 14.22Z" fill-opacity="1.000000" fill-rule="nonzero"/>
        </g>
        <g>
            <path d="M54.52 10.85L51.07 10.85L51.07 10.27Q51.07 9.21 51.6 8.72Q52.04 8.32 52.84 8.32Q53.52 8.32 54.06 8.59Q54.25 8.68 54.42 8.8L55.44 5.97Q54.92 5.62 54.13 5.43Q53.34 5.25 52.47 5.25Q50.24 5.25 48.91 6.34Q48.77 6.46 48.63 6.59Q48.35 6.87 48.13 7.19Q47.27 8.42 47.27 10.24L47.27 10.85L45.2 10.85L45.2 13.84L47.27 13.84L47.27 24L51.17 24L51.17 13.84L54.52 13.84L54.52 10.85ZM66.44 11.84Q64.77 10.35 61.65 10.35Q60.46 10.35 59.32 10.58Q58.9 10.66 58.48 10.77Q56.95 11.2 55.84 11.97L57.25 14.69Q57.97 14.12 59.01 13.78Q59.7 13.56 60.41 13.48Q60.76 13.44 61.12 13.44Q62.67 13.44 63.45 14.13Q63.61 14.28 63.74 14.44Q64.22 15.09 64.22 16.1L61.12 16.1Q58.17 16.1 56.76 17.17Q56.15 17.63 55.81 18.24Q55.35 19.05 55.35 20.12Q55.35 20.95 55.64 21.65Q55.77 21.95 55.95 22.23Q56.01 22.32 56.07 22.4Q56.66 23.2 57.68 23.67Q58.82 24.2 60.37 24.2Q62.77 24.2 63.95 23Q64.25 22.7 64.47 22.32L64.47 24L68.12 24L68.12 16.32Q68.12 13.65 66.79 12.18Q66.63 12 66.44 11.84ZM75.81 11.8Q75.57 12.04 75.37 12.32L75.37 10.54L71.65 10.54L71.65 24L75.55 24L75.55 17.65Q75.55 15.78 76.48 14.85Q76.49 14.84 76.49 14.83Q76.62 14.71 76.76 14.6Q77.67 13.89 79.12 13.89Q79.34 13.89 80 13.94L80 10.35Q78.44 10.35 77.25 10.85Q76.41 11.2 75.81 11.8ZM102.91 11.29Q101.56 10.35 99.54 10.35Q98.15 10.35 96.97 10.84Q96.87 10.88 96.78 10.92Q95.97 11.29 95.34 11.86Q94.99 12.17 94.69 12.54Q94.35 12.02 93.9 11.61Q93.43 11.19 92.84 10.91Q91.7 10.35 90.27 10.35Q88.97 10.35 87.88 10.8Q87.15 11.1 86.57 11.58Q86.29 11.82 86.04 12.09L86.04 10.54L82.32 10.54L82.32 24L86.22 24L86.22 17.24Q86.22 15.49 87.02 14.61Q87.27 14.33 87.58 14.14Q88.25 13.72 89.17 13.72Q90.17 13.72 90.78 14.21Q91.72 14.97 91.72 16.9L91.72 24L95.62 24L95.62 17.24Q95.62 15.49 96.42 14.61Q96.65 14.35 96.94 14.17Q97.62 13.72 98.59 13.72Q99.5 13.72 100.1 14.15Q100.31 14.3 100.48 14.51Q101.14 15.3 101.14 16.9L101.14 24L105.04 24L105.04 16.29Q105.04 13.33 103.56 11.84L103.56 11.84Q103.25 11.54 102.91 11.29ZM122.57 21.74L122.57 10.54L118.87 10.54L118.87 12.27Q118.45 11.74 117.92 11.35Q116.54 10.35 114.42 10.35Q113.01 10.35 111.78 10.82Q111.4 10.97 111.03 11.16Q110.24 11.58 109.62 12.17Q109.03 12.73 108.59 13.45Q108.48 13.64 108.37 13.84Q107.7 15.17 107.7 16.85Q107.7 18.49 108.35 19.81Q108.46 20.03 108.59 20.25Q109.01 20.93 109.57 21.48Q110.21 22.1 111.03 22.54Q111.4 22.73 111.78 22.88Q113.01 23.35 114.42 23.35Q116.51 23.35 117.89 22.36Q118.31 22.06 118.67 21.67L118.67 22.24Q118.67 24.02 117.78 24.93Q117.74 24.96 117.7 25Q116.75 25.92 114.72 25.92Q113.42 25.92 112.12 25.5Q110.82 25.09 109.97 24.4L108.42 27.19Q109.57 28.1 111.32 28.57Q113.07 29.04 115.02 29.04Q118.72 29.04 120.64 27.24Q120.72 27.17 120.79 27.1Q122.57 25.3 122.57 21.74ZM136.42 11.84Q134.75 10.35 131.62 10.35Q130.44 10.35 129.29 10.58Q128.87 10.66 128.46 10.77Q126.92 11.2 125.82 11.97L127.22 14.69Q127.95 14.12 128.99 13.78Q129.68 13.56 130.39 13.48Q130.74 13.44 131.1 13.44Q132.65 13.44 133.42 14.13Q133.58 14.28 133.71 14.44Q134.2 15.09 134.2 16.1L131.1 16.1Q128.14 16.1 126.73 17.17Q126.13 17.63 125.78 18.24Q125.32 19.05 125.32 20.12Q125.32 20.95 125.62 21.65Q125.74 21.95 125.92 22.23Q125.98 22.32 126.05 22.4Q126.63 23.2 127.65 23.67Q128.8 24.2 130.35 24.2Q132.74 24.2 133.93 23Q134.23 22.7 134.45 22.32L134.45 24L138.1 24L138.1 16.32Q138.1 13.65 136.77 12.18Q136.6 12 136.42 11.84ZM162.21 11.29Q160.86 10.35 158.85 10.35Q157.45 10.35 156.27 10.84Q156.17 10.88 156.08 10.92Q155.27 11.29 154.64 11.86Q154.29 12.17 153.99 12.54Q153.65 12.02 153.2 11.61Q152.73 11.19 152.14 10.91Q151 10.35 149.57 10.35Q148.27 10.35 147.18 10.8Q146.45 11.1 145.87 11.58Q145.59 11.82 145.34 12.09L145.34 10.54L141.62 10.54L141.62 24L145.52 24L145.52 17.24Q145.52 15.49 146.32 14.61Q146.57 14.33 146.88 14.14Q147.55 13.72 148.47 13.72Q149.47 13.72 150.08 14.21Q151.02 14.97 151.02 16.9L151.02 24L154.92 24L154.92 17.24Q154.92 15.49 155.72 14.61Q155.95 14.35 156.24 14.17Q156.92 13.72 157.89 13.72Q158.8 13.72 159.4 14.15Q159.61 14.3 159.78 14.51Q160.44 15.3 160.44 16.9L160.44 24L164.34 24L164.34 16.29Q164.34 13.33 162.86 11.84L162.86 11.84Q162.55 11.54 162.21 11.29ZM181.09 18.37Q181.17 17.4 181.17 17.32Q181.17 15.27 180.29 13.7Q180.27 13.67 180.25 13.63Q179.77 12.78 179.09 12.15Q178.49 11.59 177.74 11.2Q177.51 11.07 177.27 10.97Q175.86 10.35 174.17 10.35Q172.48 10.35 171.05 10.97Q170.77 11.09 170.5 11.23Q169.66 11.69 168.99 12.34Q168.38 12.94 167.93 13.71Q167.69 14.12 167.51 14.55Q167 15.8 167 17.27Q167 18.86 167.59 20.18Q167.75 20.52 167.94 20.85Q168.21 21.29 168.55 21.69Q169.39 22.67 170.64 23.31Q172.4 24.2 174.67 24.2Q177.66 24.2 179.47 22.74Q179.88 22.41 180.22 22.02L178.15 19.77Q177.44 20.44 176.63 20.76Q175.82 21.07 174.77 21.07Q173.27 21.07 172.26 20.37Q172.24 20.36 172.22 20.35Q171.74 20.01 171.43 19.56Q171.07 19.04 170.92 18.37L181.09 18.37ZM172.44 13.72Q173.2 13.3 174.2 13.3Q175.11 13.3 175.83 13.67Q176.13 13.83 176.39 14.06Q176.69 14.31 176.91 14.61Q177.36 15.24 177.49 16.1L170.87 16.1Q171.02 15.15 171.54 14.49Q171.73 14.25 171.97 14.05Q172.19 13.86 172.44 13.72ZM117.24 19.61Q116.38 20.14 115.2 20.14Q114.03 20.14 113.17 19.63Q112.89 19.46 112.65 19.23Q112.27 18.89 112.03 18.47Q111.64 17.76 111.64 16.85Q111.64 15.91 112.05 15.2Q112.28 14.79 112.65 14.46Q112.9 14.23 113.19 14.06Q114.04 13.55 115.2 13.55Q116.37 13.55 117.22 14.07Q117.49 14.24 117.73 14.46Q118.08 14.78 118.31 15.18Q118.72 15.9 118.72 16.85Q118.72 17.78 118.32 18.49Q118.09 18.9 117.73 19.23Q117.5 19.45 117.24 19.61ZM62.85 21.25Q62.17 21.57 61.35 21.57Q60.32 21.57 59.73 21.13Q59.46 20.93 59.31 20.65Q59.14 20.34 59.14 19.94Q59.14 19.47 59.36 19.14Q59.87 18.37 61.54 18.37L64.22 18.37L64.22 19.75Q64.02 20.31 63.63 20.7Q63.41 20.93 63.12 21.11Q62.99 21.19 62.85 21.25ZM132.82 21.25Q132.15 21.57 131.32 21.57Q130.3 21.57 129.71 21.13Q129.43 20.93 129.28 20.65Q129.12 20.34 129.12 19.94Q129.12 19.47 129.34 19.14Q129.84 18.37 131.52 18.37L134.2 18.37L134.2 19.75Q133.99 20.31 133.61 20.7Q133.38 20.93 133.09 21.11Q132.96 21.19 132.82 21.25Z" fill-opacity="1.000000" fill-rule="evenodd"/>
        </g>
    </symbol>
</svg>
